<svg width="1412" height="811" viewBox="0 0 1412 811" fill="none" xmlns="http://www.w3.org/2000/svg">
<path d="M340.065 449.812C341.202 450.922 342.226 452.031 343.137 453.14C344.161 454.25 345.099 455.444 346.038 456.639C346.806 457.663 347.574 458.687 348.257 459.711C348.59 460.054 348.851 460.46 349.025 460.906C349.707 461.93 350.39 463.039 350.987 464.148C354.006 469.269 356.304 474.783 357.814 480.532C357.814 480.618 357.899 480.618 357.899 480.703C358.401 480.549 358.915 480.435 359.435 480.362L443.318 473.364C446.077 489.716 446.106 506.411 443.403 522.772V522.858L359.435 515.86C358.915 515.787 358.401 515.673 357.899 515.519C357.899 515.604 357.814 515.604 357.814 515.69C355.297 525.169 350.755 533.99 344.502 541.546C343.837 542.409 343.125 543.235 342.369 544.02C342.272 544.202 342.124 544.35 341.942 544.447C341.36 545.142 340.733 545.798 340.065 546.41C339.979 546.58 339.979 546.58 339.894 546.58C340.303 546.915 340.65 547.32 340.918 547.775L389.046 616.98C376.303 627.508 361.879 635.816 346.379 641.556L346.209 641.642L310.283 565.439C310.113 564.927 309.942 564.5 309.771 563.988H309.601C306.651 564.757 303.659 565.356 300.641 565.78C299.19 565.951 297.654 566.122 296.118 566.207C294.753 566.292 293.302 566.378 291.851 566.378C290.23 566.378 288.609 566.292 287.073 566.207C285.707 566.122 284.257 565.951 282.806 565.78C279.872 565.392 276.965 564.822 274.102 564.074C274.017 563.988 274.017 563.988 273.931 563.988C273.761 564.5 273.59 564.927 273.419 565.439L237.494 641.642C229.712 638.827 222.2 635.314 215.051 631.146C207.853 627.027 201.029 622.287 194.657 616.98L242.785 547.775C243.053 547.32 243.4 546.915 243.809 546.58C243.723 546.58 243.723 546.58 243.638 546.495V546.41C242.5 545.3 241.476 544.191 240.566 543.082C239.542 541.972 238.603 540.778 237.665 539.583C236.897 538.559 236.129 537.535 235.446 536.511C235.113 536.168 234.852 535.762 234.678 535.316C233.995 534.292 233.313 533.183 232.715 532.074C229.696 526.953 227.399 521.439 225.889 515.69C225.889 515.604 225.803 515.604 225.803 515.519C225.301 515.673 224.788 515.787 224.267 515.86L140.385 522.858C137.625 506.506 137.596 489.81 140.299 473.45V473.364L224.267 480.362C224.788 480.435 225.301 480.549 225.803 480.703C225.803 480.618 225.889 480.618 225.889 480.532C228.406 471.053 232.947 462.232 239.201 454.676C239.866 453.813 240.578 452.987 241.334 452.202C241.431 452.02 241.579 451.871 241.761 451.775C242.342 451.08 242.969 450.424 243.638 449.812C243.723 449.642 243.723 449.642 243.809 449.642C243.4 449.307 243.053 448.902 242.785 448.447L194.657 379.242C207.4 368.714 221.823 360.406 237.323 354.666L237.494 354.58L273.419 430.783C273.59 431.295 273.761 431.722 273.931 432.234H274.102C277.052 431.464 280.043 430.866 283.062 430.442C284.513 430.271 286.049 430.1 287.585 430.015C288.95 429.93 290.401 429.844 291.851 429.844C293.473 429.844 295.094 429.93 296.63 430.015C297.995 430.1 299.446 430.271 300.897 430.442C303.831 430.829 306.738 431.399 309.601 432.148C309.686 432.234 309.686 432.234 309.771 432.234C309.942 431.722 310.113 431.295 310.283 430.783L346.209 354.58C353.991 357.395 361.502 360.908 368.651 365.076C375.849 369.195 382.673 373.935 389.046 379.242L340.918 448.447C340.65 448.902 340.303 449.307 339.894 449.642C339.979 449.642 339.979 449.642 340.065 449.727V449.812ZM304.651 475.924C292.404 468.868 276.755 473.072 269.694 485.317C262.633 497.562 266.832 513.212 279.074 520.278C291.316 527.343 306.968 523.15 314.038 510.911C321.08 498.654 316.883 483.01 304.651 475.924Z" fill="#E8EDFC"/>
<path d="M242.785 547.775L243.638 546.495C243.723 546.58 243.723 546.58 243.809 546.58C243.4 546.915 243.053 547.319 242.785 547.775ZM242.785 547.775L243.638 546.495C243.723 546.58 243.723 546.58 243.809 546.58C243.4 546.915 243.053 547.319 242.785 547.775ZM242.785 547.775L243.638 546.495C243.723 546.58 243.723 546.58 243.809 546.58C243.4 546.915 243.053 547.319 242.785 547.775ZM273.419 565.439C273.59 564.927 273.761 564.5 273.931 563.988C274.017 563.988 274.017 563.988 274.102 564.074L273.419 565.439ZM273.419 565.439C273.59 564.927 273.761 564.5 273.931 563.988C274.017 563.988 274.017 563.988 274.102 564.074L273.419 565.439ZM242.785 547.775L243.638 546.495C243.723 546.58 243.723 546.58 243.809 546.58C243.4 546.915 243.053 547.319 242.785 547.775ZM242.785 547.775L243.638 546.495C243.723 546.58 243.723 546.58 243.809 546.58C243.4 546.915 243.053 547.319 242.785 547.775ZM273.419 565.439C273.59 564.927 273.761 564.5 273.931 563.988C274.017 563.988 274.017 563.988 274.102 564.074L273.419 565.439ZM309.771 432.234C309.686 432.234 309.686 432.234 309.601 432.148L310.283 430.783C310.113 431.295 309.942 431.722 309.771 432.234ZM340.065 449.727C339.979 449.642 339.979 449.642 339.894 449.642C340.303 449.307 340.65 448.902 340.918 448.447L340.065 449.727ZM340.065 449.727C339.979 449.642 339.979 449.642 339.894 449.642C340.303 449.307 340.65 448.902 340.918 448.447L340.065 449.727ZM309.771 432.234C309.686 432.234 309.686 432.234 309.601 432.148L310.283 430.783C310.113 431.295 309.942 431.722 309.771 432.234ZM273.419 565.439C273.59 564.927 273.761 564.5 273.931 563.988C274.017 563.988 274.017 563.988 274.102 564.074L273.419 565.439ZM242.785 547.775L243.638 546.495C243.723 546.58 243.723 546.58 243.809 546.58C243.4 546.915 243.053 547.319 242.785 547.775ZM242.785 547.775L243.638 546.495C243.723 546.58 243.723 546.58 243.809 546.58C243.4 546.915 243.053 547.319 242.785 547.775ZM273.419 565.439C273.59 564.927 273.761 564.5 273.931 563.988C274.017 563.988 274.017 563.988 274.102 564.074L273.419 565.439ZM309.771 432.234C309.686 432.234 309.686 432.234 309.601 432.148L310.283 430.783C310.113 431.295 309.942 431.722 309.771 432.234ZM340.065 449.727C339.979 449.642 339.979 449.642 339.894 449.642C340.303 449.307 340.65 448.902 340.918 448.447L340.065 449.727ZM340.065 449.727C339.979 449.642 339.979 449.642 339.894 449.642C340.303 449.307 340.65 448.902 340.918 448.447L340.065 449.727ZM309.771 432.234C309.686 432.234 309.686 432.234 309.601 432.148L310.283 430.783C310.113 431.295 309.942 431.722 309.771 432.234ZM273.419 565.439C273.59 564.927 273.761 564.5 273.931 563.988C274.017 563.988 274.017 563.988 274.102 564.074L273.419 565.439ZM242.785 547.775L243.638 546.495C243.723 546.58 243.723 546.58 243.809 546.58C243.4 546.915 243.053 547.319 242.785 547.775ZM242.785 547.775L243.638 546.495C243.723 546.58 243.723 546.58 243.809 546.58C243.4 546.915 243.053 547.319 242.785 547.775ZM273.419 565.439C273.59 564.927 273.761 564.5 273.931 563.988C274.017 563.988 274.017 563.988 274.102 564.074L273.419 565.439ZM309.771 432.234C309.686 432.234 309.686 432.234 309.601 432.148L310.283 430.783C310.113 431.295 309.942 431.722 309.771 432.234ZM340.065 449.727C339.979 449.642 339.979 449.642 339.894 449.642C340.303 449.307 340.65 448.902 340.918 448.447L340.065 449.727ZM340.065 449.727C339.979 449.642 339.979 449.642 339.894 449.642C340.303 449.307 340.65 448.902 340.918 448.447L340.065 449.727ZM309.601 432.148L310.283 430.783C310.113 431.295 309.942 431.722 309.771 432.234C309.686 432.234 309.686 432.234 309.601 432.148ZM273.931 563.988C274.017 563.988 274.017 563.988 274.102 564.074L273.419 565.439C273.59 564.927 273.761 564.5 273.931 563.988ZM243.638 546.495C243.723 546.58 243.723 546.58 243.809 546.58C243.4 546.915 243.053 547.319 242.785 547.775L243.638 546.495ZM506.123 621.844C459.581 702.538 371.644 750.233 278.625 745.236C410.081 738.556 513.304 630.141 513.532 498.516C513.759 366.89 410.91 258.12 279.478 250.986C369.974 246.477 455.698 291.787 502.947 369.1C550.196 446.414 551.415 543.368 506.123 621.844ZM339.894 449.642C340.303 449.307 340.65 448.902 340.918 448.447L340.065 449.727C339.979 449.642 339.979 449.642 339.894 449.642ZM309.601 432.148L310.283 430.783C310.113 431.295 309.942 431.722 309.771 432.234C309.686 432.234 309.686 432.234 309.601 432.148ZM273.931 563.988C274.017 563.988 274.017 563.988 274.102 564.074L273.419 565.439C273.59 564.927 273.761 564.5 273.931 563.988ZM243.638 546.495C243.723 546.58 243.723 546.58 243.809 546.58C243.4 546.915 243.053 547.319 242.785 547.775L243.638 546.495ZM242.785 547.775L243.638 546.495C243.723 546.58 243.723 546.58 243.809 546.58C243.4 546.915 243.053 547.319 242.785 547.775ZM273.419 565.439C273.59 564.927 273.761 564.5 273.931 563.988C274.017 563.988 274.017 563.988 274.102 564.074L273.419 565.439ZM309.771 432.234C309.686 432.234 309.686 432.234 309.601 432.148L310.283 430.783C310.113 431.295 309.942 431.722 309.771 432.234ZM340.065 449.727C339.979 449.642 339.979 449.642 339.894 449.642C340.303 449.307 340.65 448.902 340.918 448.447L340.065 449.727ZM340.065 449.727C339.979 449.642 339.979 449.642 339.894 449.642C340.303 449.307 340.65 448.902 340.918 448.447L340.065 449.727ZM309.771 432.234C309.686 432.234 309.686 432.234 309.601 432.148L310.283 430.783C310.113 431.295 309.942 431.722 309.771 432.234ZM273.419 565.439C273.59 564.927 273.761 564.5 273.931 563.988C274.017 563.988 274.017 563.988 274.102 564.074L273.419 565.439ZM242.785 547.775L243.638 546.495C243.723 546.58 243.723 546.58 243.809 546.58C243.4 546.915 243.053 547.319 242.785 547.775ZM242.785 547.775L243.638 546.495C243.723 546.58 243.723 546.58 243.809 546.58C243.4 546.915 243.053 547.319 242.785 547.775ZM273.419 565.439C273.59 564.927 273.761 564.5 273.931 563.988C274.017 563.988 274.017 563.988 274.102 564.074L273.419 565.439ZM309.771 432.234C309.686 432.234 309.686 432.234 309.601 432.148L310.283 430.783C310.113 431.295 309.942 431.722 309.771 432.234ZM340.065 449.727C339.979 449.642 339.979 449.642 339.894 449.642C340.303 449.307 340.65 448.902 340.918 448.447L340.065 449.727ZM340.065 449.727C339.979 449.642 339.979 449.642 339.894 449.642C340.303 449.307 340.65 448.902 340.918 448.447L340.065 449.727ZM309.771 432.234C309.686 432.234 309.686 432.234 309.601 432.148L310.283 430.783C310.113 431.295 309.942 431.722 309.771 432.234ZM273.419 565.439C273.59 564.927 273.761 564.5 273.931 563.988C274.017 563.988 274.017 563.988 274.102 564.074L273.419 565.439ZM242.785 547.775L243.638 546.495C243.723 546.58 243.723 546.58 243.809 546.58C243.4 546.915 243.053 547.319 242.785 547.775ZM242.785 547.775L243.638 546.495C243.723 546.58 243.723 546.58 243.809 546.58C243.4 546.915 243.053 547.319 242.785 547.775ZM273.419 565.439C273.59 564.927 273.761 564.5 273.931 563.988C274.017 563.988 274.017 563.988 274.102 564.074L273.419 565.439ZM340.065 449.727C339.979 449.642 339.979 449.642 339.894 449.642C340.303 449.307 340.65 448.902 340.918 448.447L340.065 449.727ZM340.065 449.727C339.979 449.642 339.979 449.642 339.894 449.642C340.303 449.307 340.65 448.902 340.918 448.447L340.065 449.727ZM273.419 565.439C273.59 564.927 273.761 564.5 273.931 563.988C274.017 563.988 274.017 563.988 274.102 564.074L273.419 565.439ZM242.785 547.775L243.638 546.495C243.723 546.58 243.723 546.58 243.809 546.58C243.4 546.915 243.053 547.319 242.785 547.775ZM242.785 547.775L243.638 546.495C243.723 546.58 243.723 546.58 243.809 546.58C243.4 546.915 243.053 547.319 242.785 547.775ZM273.419 565.439C273.59 564.927 273.761 564.5 273.931 563.988C274.017 563.988 274.017 563.988 274.102 564.074L273.419 565.439ZM273.419 565.439C273.59 564.927 273.761 564.5 273.931 563.988C274.017 563.988 274.017 563.988 274.102 564.074L273.419 565.439ZM242.785 547.775L243.638 546.495C243.723 546.58 243.723 546.58 243.809 546.58C243.4 546.915 243.053 547.319 242.785 547.775Z" fill="#CAD9FC"/>
<path d="M217.185 547.775L218.038 546.495C218.123 546.58 218.123 546.58 218.209 546.58C217.8 546.915 217.453 547.32 217.185 547.775ZM217.185 547.775L218.038 546.495C218.123 546.58 218.123 546.58 218.209 546.58C217.8 546.915 217.453 547.32 217.185 547.775ZM217.185 547.775L218.038 546.495C218.123 546.58 218.123 546.58 218.209 546.58C217.8 546.915 217.453 547.32 217.185 547.775ZM247.819 565.439C247.99 564.927 248.161 564.5 248.331 563.988C248.417 563.988 248.417 563.988 248.502 564.074L247.819 565.439ZM247.819 565.439C247.99 564.927 248.161 564.5 248.331 563.988C248.417 563.988 248.417 563.988 248.502 564.074L247.819 565.439ZM217.185 547.775L218.038 546.495C218.123 546.58 218.123 546.58 218.209 546.58C217.8 546.915 217.453 547.32 217.185 547.775ZM217.185 547.775L218.038 546.495C218.123 546.58 218.123 546.58 218.209 546.58C217.8 546.915 217.453 547.32 217.185 547.775ZM247.819 565.439C247.99 564.927 248.161 564.5 248.331 563.988C248.417 563.988 248.417 563.988 248.502 564.074L247.819 565.439ZM284.171 432.234C284.086 432.234 284.086 432.234 284.001 432.148L284.683 430.783C284.513 431.295 284.342 431.722 284.171 432.234ZM314.465 449.727C314.379 449.642 314.379 449.642 314.294 449.642C314.703 449.307 315.05 448.902 315.318 448.447L314.465 449.727ZM314.465 449.727C314.379 449.642 314.379 449.642 314.294 449.642C314.703 449.307 315.05 448.902 315.318 448.447L314.465 449.727ZM284.171 432.234C284.086 432.234 284.086 432.234 284.001 432.148L284.683 430.783C284.513 431.295 284.342 431.722 284.171 432.234ZM247.819 565.439C247.99 564.927 248.161 564.5 248.331 563.988C248.417 563.988 248.417 563.988 248.502 564.074L247.819 565.439ZM217.185 547.775L218.038 546.495C218.123 546.58 218.123 546.58 218.209 546.58C217.8 546.915 217.453 547.32 217.185 547.775ZM217.185 547.775L218.038 546.495C218.123 546.58 218.123 546.58 218.209 546.58C217.8 546.915 217.453 547.32 217.185 547.775ZM247.819 565.439C247.99 564.927 248.161 564.5 248.331 563.988C248.417 563.988 248.417 563.988 248.502 564.074L247.819 565.439ZM284.171 432.234C284.086 432.234 284.086 432.234 284.001 432.148L284.683 430.783C284.513 431.295 284.342 431.722 284.171 432.234ZM314.465 449.727C314.379 449.642 314.379 449.642 314.294 449.642C314.703 449.307 315.05 448.902 315.318 448.447L314.465 449.727ZM314.465 449.727C314.379 449.642 314.379 449.642 314.294 449.642C314.703 449.307 315.05 448.902 315.318 448.447L314.465 449.727ZM284.171 432.234C284.086 432.234 284.086 432.234 284.001 432.148L284.683 430.783C284.513 431.295 284.342 431.722 284.171 432.234ZM247.819 565.439C247.99 564.927 248.161 564.5 248.331 563.988C248.417 563.988 248.417 563.988 248.502 564.074L247.819 565.439ZM217.185 547.775L218.038 546.495C218.123 546.58 218.123 546.58 218.209 546.58C217.8 546.915 217.453 547.32 217.185 547.775ZM217.185 547.775L218.038 546.495C218.123 546.58 218.123 546.58 218.209 546.58C217.8 546.915 217.453 547.32 217.185 547.775ZM247.819 565.439C247.99 564.927 248.161 564.5 248.331 563.988C248.417 563.988 248.417 563.988 248.502 564.074L247.819 565.439ZM284.171 432.234C284.086 432.234 284.086 432.234 284.001 432.148L284.683 430.783C284.513 431.295 284.342 431.722 284.171 432.234ZM314.465 449.727C314.379 449.642 314.379 449.642 314.294 449.642C314.703 449.307 315.05 448.902 315.318 448.447L314.465 449.727ZM314.465 449.727C314.379 449.642 314.379 449.642 314.294 449.642C314.703 449.307 315.05 448.902 315.318 448.447L314.465 449.727ZM284.001 432.148L284.683 430.783C284.513 431.295 284.342 431.722 284.171 432.234C284.086 432.234 284.086 432.234 284.001 432.148ZM248.331 563.988C248.417 563.988 248.417 563.988 248.502 564.074L247.819 565.439C247.99 564.927 248.161 564.5 248.331 563.988ZM218.038 546.495C218.123 546.58 218.123 546.58 218.209 546.58C217.8 546.915 217.453 547.32 217.185 547.775L218.038 546.495ZM314.465 449.727C314.379 449.642 314.379 449.642 314.294 449.642C314.703 449.307 315.05 448.902 315.318 448.447L314.465 449.727ZM284.001 432.148L284.683 430.783C284.513 431.295 284.342 431.722 284.171 432.234C284.086 432.234 284.086 432.234 284.001 432.148ZM248.331 563.988C248.417 563.988 248.417 563.988 248.502 564.074L247.819 565.439C247.99 564.927 248.161 564.5 248.331 563.988ZM218.038 546.495C218.123 546.58 218.123 546.58 218.209 546.58C217.8 546.915 217.453 547.32 217.185 547.775L218.038 546.495ZM217.185 547.775L218.038 546.495C218.123 546.58 218.123 546.58 218.209 546.58C217.8 546.915 217.453 547.32 217.185 547.775ZM247.819 565.439C247.99 564.927 248.161 564.5 248.331 563.988C248.417 563.988 248.417 563.988 248.502 564.074L247.819 565.439ZM284.171 432.234C284.086 432.234 284.086 432.234 284.001 432.148L284.683 430.783C284.513 431.295 284.342 431.722 284.171 432.234ZM314.465 449.727C314.379 449.642 314.379 449.642 314.294 449.642C314.703 449.307 315.05 448.902 315.318 448.447L314.465 449.727ZM314.465 449.727C314.379 449.642 314.379 449.642 314.294 449.642C314.703 449.307 315.05 448.902 315.318 448.447L314.465 449.727ZM284.171 432.234C284.086 432.234 284.086 432.234 284.001 432.148L284.683 430.783C284.513 431.295 284.342 431.722 284.171 432.234ZM247.819 565.439C247.99 564.927 248.161 564.5 248.331 563.988C248.417 563.988 248.417 563.988 248.502 564.074L247.819 565.439ZM217.185 547.775L218.038 546.495C218.123 546.58 218.123 546.58 218.209 546.58C217.8 546.915 217.453 547.32 217.185 547.775ZM217.185 547.775L218.038 546.495C218.123 546.58 218.123 546.58 218.209 546.58C217.8 546.915 217.453 547.32 217.185 547.775ZM247.819 565.439C247.99 564.927 248.161 564.5 248.331 563.988C248.417 563.988 248.417 563.988 248.502 564.074L247.819 565.439ZM284.171 432.234C284.086 432.234 284.086 432.234 284.001 432.148L284.683 430.783C284.513 431.295 284.342 431.722 284.171 432.234ZM314.465 449.727C314.379 449.642 314.379 449.642 314.294 449.642C314.703 449.307 315.05 448.902 315.318 448.447L314.465 449.727ZM314.465 449.727C314.379 449.642 314.379 449.642 314.294 449.642C314.703 449.307 315.05 448.902 315.318 448.447L314.465 449.727ZM284.171 432.234C284.086 432.234 284.086 432.234 284.001 432.148L284.683 430.783C284.513 431.295 284.342 431.722 284.171 432.234ZM247.819 565.439C247.99 564.927 248.161 564.5 248.331 563.988C248.417 563.988 248.417 563.988 248.502 564.074L247.819 565.439ZM217.185 547.775L218.038 546.495C218.123 546.58 218.123 546.58 218.209 546.58C217.8 546.915 217.453 547.32 217.185 547.775ZM217.185 547.775L218.038 546.495C218.123 546.58 218.123 546.58 218.209 546.58C217.8 546.915 217.453 547.32 217.185 547.775ZM247.819 565.439C247.99 564.927 248.161 564.5 248.331 563.988C248.417 563.988 248.417 563.988 248.502 564.074L247.819 565.439ZM314.465 449.727C314.379 449.642 314.379 449.642 314.294 449.642C314.703 449.307 315.05 448.902 315.318 448.447L314.465 449.727ZM314.465 449.727C314.379 449.642 314.379 449.642 314.294 449.642C314.703 449.307 315.05 448.902 315.318 448.447L314.465 449.727ZM247.819 565.439C247.99 564.927 248.161 564.5 248.331 563.988C248.417 563.988 248.417 563.988 248.502 564.074L247.819 565.439ZM217.185 547.775L218.038 546.495C218.123 546.58 218.123 546.58 218.209 546.58C217.8 546.915 217.453 547.32 217.185 547.775ZM217.185 547.775L218.038 546.495C218.123 546.58 218.123 546.58 218.209 546.58C217.8 546.915 217.453 547.32 217.185 547.775ZM247.819 565.439C247.99 564.927 248.161 564.5 248.331 563.988C248.417 563.988 248.417 563.988 248.502 564.074L247.819 565.439ZM247.819 565.439C247.99 564.927 248.161 564.5 248.331 563.988C248.417 563.988 248.417 563.988 248.502 564.074L247.819 565.439ZM217.185 547.775L218.038 546.495C218.123 546.58 218.123 546.58 218.209 546.58C217.8 546.915 217.453 547.32 217.185 547.775Z" fill="#CAD9FC"/>
<path d="M480.523 621.844C438.568 694.615 362.521 741.092 278.625 745.236C147.193 738.102 44.3439 629.331 44.5712 497.706C44.7984 366.081 148.022 257.666 279.478 250.986C365.39 255.624 442.73 304.543 483.733 380.181C524.737 455.818 523.522 547.322 480.523 621.844ZM443.318 473.364C437.383 436.396 418.067 402.898 389.046 379.242C382.673 373.935 375.849 369.195 368.651 365.076C361.502 360.908 353.991 357.395 346.209 354.58C324.822 346.407 301.865 343.169 279.051 345.108C264.833 346.365 250.852 349.551 237.494 354.58L237.323 354.666C221.823 360.406 207.4 368.714 194.657 379.242C165.61 402.89 146.265 436.387 140.299 473.364V473.45C137.597 489.81 137.625 506.506 140.385 522.858C146.32 559.826 165.635 593.324 194.657 616.98C201.029 622.287 207.854 627.027 215.051 631.146C222.2 635.314 229.712 638.827 237.494 641.642C272.503 654.988 311.199 654.988 346.209 641.642L346.379 641.556C361.88 635.816 376.303 627.508 389.046 616.98C418.093 593.332 437.437 559.835 443.403 522.858V522.772C446.106 506.411 446.077 489.716 443.318 473.364Z" fill="#E8EDFC"/>
<path d="M360.118 498.111C360.118 460.409 329.554 429.845 291.851 429.845C287.557 429.849 283.272 430.249 279.051 431.039C246.826 437.149 223.5 465.312 223.5 498.111C223.5 530.911 246.826 559.074 279.051 565.183C283.272 565.973 287.557 566.373 291.851 566.378C329.554 566.378 360.118 535.814 360.118 498.111Z" fill="#CAD9FC"/>
<path d="M279.051 431.039C309.685 431.039 334.518 461.068 334.518 498.111C334.518 535.154 309.685 565.183 279.051 565.183C248.418 565.183 223.585 535.154 223.585 498.111C223.585 461.068 248.418 431.039 279.051 431.039Z" fill="#E8EDFC"/>
<path d="M304.651 475.924C298.208 472.147 290.41 471.458 283.403 474.047C277.611 476.015 272.73 480.017 269.665 485.311C262.622 497.568 266.82 513.212 279.051 520.298C280.399 521.08 281.83 521.71 283.318 522.175C295.738 526.431 309.364 520.601 314.863 508.68C320.362 496.758 315.951 482.609 304.651 475.924Z" fill="#7FACFA"/>
<path d="M287.585 475.924C286.266 475.142 284.864 474.513 283.403 474.047C277.611 476.015 272.73 480.017 269.665 485.311C262.622 497.568 266.82 513.212 279.051 520.297C280.399 521.08 281.83 521.71 283.318 522.175C289.083 520.197 293.934 516.195 296.971 510.911C304.014 498.654 299.817 483.01 287.585 475.924Z" fill="#A4C2F7"/>
<path d="M77.5794 374.378C119.535 301.607 195.581 255.13 279.478 250.986C287.593 250.568 295.751 250.696 303.909 251.08C173.095 258.622 70.8351 366.827 70.688 497.858C70.5409 628.889 172.558 737.323 303.354 745.16C295.137 745.544 286.885 745.663 278.608 745.228C192.702 740.582 115.37 691.662 74.3706 616.028C33.3714 540.394 34.5863 448.896 77.5794 374.378Z" fill="white"/>
<path d="M70.1471 370.111C51.0638 403.433 39.6727 440.601 36.8073 478.894C35.8916 490.819 35.7633 502.792 36.4233 514.734C36.9012 520.707 37.7631 526.621 38.4201 532.568C39.0235 538.523 40.053 544.426 41.5007 550.232C46.2509 573.74 54.4095 596.428 65.7183 617.578C76.8007 638.825 90.8828 658.368 107.532 675.604C124.273 692.761 143.211 707.627 163.852 719.815L172.385 705.036C153.138 693.637 135.473 679.757 119.845 663.751C104.296 647.674 91.1421 629.442 80.7881 609.616C70.2305 589.877 62.6232 568.697 58.2089 546.751C56.8385 541.332 55.8772 535.819 55.3332 530.256C54.7273 524.701 53.8996 519.163 53.4473 513.607C52.8481 502.472 52.9763 491.31 53.8313 480.191C56.4962 444.447 67.1206 409.752 84.9268 378.644L70.1471 370.111Z" fill="white"/>
<path d="M47.8918 430.024L49.4107 429.367C49.9611 429.176 50.5357 429.064 51.1174 429.034C51.6515 428.931 52.1979 428.908 52.7387 428.965C53.314 429.029 53.8842 429.131 54.4454 429.273C56.5994 429.941 58.4372 431.369 59.6166 433.292C60.1441 434.254 60.483 435.309 60.615 436.398C60.9955 439.744 59.3526 442.996 56.4337 444.675C55.4787 445.22 54.4364 445.596 53.3531 445.785C52.2688 446.002 51.1521 446.002 50.0678 445.785C47.8352 445.27 45.8841 443.921 44.615 442.013C43.5423 439.99 43.2799 437.635 43.8811 435.425C44.5047 433.191 45.9334 431.267 47.8918 430.024Z" fill="#0D47A1"/>
<path d="M358.113 745.39C292.542 763.149 222.592 753.94 163.851 719.816C143.21 707.627 124.273 692.761 107.531 675.604C90.8825 658.368 76.8005 638.825 65.718 617.578C54.4124 596.439 46.2538 573.763 41.5004 550.267C40.0498 544.46 39.0175 538.557 38.4114 532.603C37.7543 526.63 36.8924 520.724 36.4146 514.768C35.7545 502.826 35.8828 490.853 36.7986 478.928L37.4727 470.096C37.6741 467.792 38.8225 465.675 40.6439 464.25C42.4654 462.825 44.7965 462.22 47.0812 462.578C51.6054 463.311 54.8074 467.397 54.437 471.965L53.8311 480.191C52.9735 491.33 52.8452 502.512 53.4471 513.667C53.8994 519.231 54.7271 524.761 55.333 530.316C55.8799 535.858 56.8412 541.352 58.2087 546.751C62.6262 568.685 70.2334 589.854 80.7879 609.582C91.1418 629.408 104.296 647.64 119.845 663.718C135.472 679.728 153.137 693.614 172.385 705.019C256.084 753.349 360.656 746.495 437.33 687.653C514.004 628.811 547.677 529.571 522.644 436.219C497.616 342.882 418.832 273.811 323.023 261.208C227.215 248.606 133.248 294.955 84.9351 378.644L77.4258 393.322L73.6882 400.669L70.7015 408.349C68.8893 412.618 64.0389 414.704 59.6935 413.085C57.5531 412.268 55.8345 410.62 54.9294 408.516C54.0243 406.411 54.0098 404.03 54.8892 401.915L58.1148 393.697L62.0999 385.821L70.1468 370.111C103.954 311.189 159.926 268.239 225.59 250.832C247.335 244.988 269.753 242.018 292.27 242C383.666 242.181 468.037 291.059 513.66 370.254C559.283 449.449 559.24 546.956 513.547 626.111C479.742 685.031 423.773 727.981 358.113 745.39Z" fill="#0D47A1"/>
<path d="M203.028 701.349C195.468 698.043 188.088 694.34 180.918 690.256C139.183 666.37 106.443 629.445 87.7254 585.151C85.885 580.81 87.9118 575.8 92.2523 573.96C96.5928 572.119 101.603 574.146 103.444 578.486C120.704 619.347 150.902 653.41 189.4 675.442C196.041 679.215 202.877 682.634 209.88 685.682C212.676 686.902 214.608 689.52 214.95 692.551C215.292 695.582 213.991 698.564 211.537 700.376C209.083 702.187 205.849 702.552 203.053 701.332L203.028 701.349Z" fill="#0D47A1"/>
<path d="M190.16 624.148C190.04 624.072 189.904 624.063 189.784 623.986C189.586 623.801 189.398 623.604 189.221 623.398C144.949 587.02 123.12 530.007 131.775 473.364C131.775 473.262 131.834 473.177 131.834 473.083C140.357 415.654 179.099 367.242 233.262 346.337C287.426 325.432 348.647 335.262 393.543 372.074C393.663 372.151 393.799 372.159 393.919 372.236C394.117 372.422 394.305 372.618 394.482 372.825C438.753 409.203 460.583 466.215 451.928 522.858C451.928 522.96 451.868 523.046 451.868 523.139C445.93 562.554 425.455 598.319 394.473 623.398C394.26 623.577 394.14 623.824 393.91 623.986C393.816 624.046 393.705 624.055 393.611 624.114C348.708 660.266 288.006 669.902 234.115 649.433C234.029 649.39 233.936 649.433 233.842 649.364L233.731 649.279C217.877 643.45 203.137 634.951 190.151 624.148H190.16ZM258.111 537.672C258.352 537.804 258.585 537.949 258.81 538.107L266.098 542.374L281.014 550.992C283.326 552.368 284.842 554.765 285.093 557.443C290.618 558.026 296.197 557.848 301.673 556.914C302.937 552.762 305.735 549.246 309.498 547.084L325.387 537.851C329.174 535.675 333.652 535.033 337.897 536.059C340.019 533.532 341.928 530.835 343.606 527.995C345.223 525.139 346.593 522.15 347.702 519.06C344.701 515.893 343.036 511.691 343.051 507.327V488.895C343.043 484.552 344.705 480.372 347.693 477.222C345.748 472.024 343.095 467.119 339.809 462.647C337.372 463.762 334.549 463.644 332.214 462.331L325.985 458.721C325.857 458.653 325.72 458.619 325.592 458.551C325.351 458.419 325.117 458.273 324.892 458.115L317.605 453.849L302.689 445.23C300.377 443.854 298.861 441.457 298.61 438.779C293.062 438.194 287.459 438.377 281.961 439.325C280.719 443.463 277.953 446.977 274.221 449.155L258.281 458.363C254.51 460.513 250.06 461.144 245.84 460.129C243.7 462.662 241.779 465.371 240.097 468.227C238.479 471.084 237.109 474.072 236.001 477.162C239.001 480.33 240.667 484.532 240.651 488.895V507.327C240.66 511.67 238.998 515.85 236.009 519.001C237.951 524.192 240.598 529.09 243.877 533.559C246.308 532.379 249.17 532.504 251.489 533.891L257.812 537.552C257.906 537.603 258.017 537.612 258.111 537.672ZM377.407 615.188L333.938 552.588L317.997 561.795L350.475 630.668C359.982 626.49 369.011 621.3 377.407 615.188ZM435.868 482.546L360.118 488.895V507.361L435.954 513.684C437.043 503.332 437.015 492.893 435.868 482.546ZM206.97 382.007L249.748 443.609L265.688 434.41L233.722 366.595L206.97 382.007ZM147.834 513.676L223.585 507.327V488.861L147.749 482.538C146.659 492.89 146.688 503.33 147.834 513.676ZM193.112 604.24L232.843 547.024C227.346 540.378 222.999 532.859 219.984 524.778L150.693 530.563C157.145 558.812 171.922 584.477 193.112 604.24ZM166.215 425.578C158.993 438.085 153.686 451.604 150.471 465.684L219.975 471.479C221.42 467.418 223.213 463.489 225.334 459.737C227.533 456.019 230.042 452.494 232.835 449.198L193.061 391.931C182.484 401.745 173.436 413.086 166.215 425.578ZM249.313 359.649L278.975 422.591C283.311 421.798 287.707 421.375 292.116 421.328C296.354 421.37 300.581 421.764 304.754 422.506L334.433 359.547C306.69 351.055 277.035 351.09 249.313 359.649ZM364.385 372.449C359.89 369.868 355.261 367.526 350.518 365.435L318.091 434.393L326.275 439.146L333.955 443.566L377.475 380.974C373.266 377.909 368.897 375.072 364.385 372.475V372.449ZM390.591 391.956L350.851 449.13C356.354 455.773 360.704 463.293 363.719 471.376L433.01 465.591C426.545 437.366 411.769 411.727 390.591 391.982V391.956ZM417.488 570.644C424.709 558.137 430.016 544.618 433.232 530.538L363.728 524.744C362.298 528.812 360.519 532.749 358.411 536.511C356.206 540.242 353.688 543.779 350.885 547.084L390.659 604.257C401.226 594.452 410.268 583.122 417.488 570.644ZM291.604 643.178C306.121 643.152 320.554 640.961 334.424 636.675L304.711 573.665C296.188 575.133 287.48 575.159 278.949 573.742L249.244 636.752C262.965 640.991 277.243 643.157 291.604 643.178ZM233.202 630.719L265.628 561.804L257.445 557.051L249.765 552.631L206.245 615.223C214.602 621.393 223.635 626.592 233.168 630.719H233.202Z" fill="#0D47A1"/>
<path d="M283.019 465.147C298.75 460.935 315.265 468.421 322.464 483.028C329.664 497.634 325.543 515.292 312.621 525.203C299.7 535.113 281.577 534.516 269.336 523.776C257.095 513.036 254.146 495.145 262.292 481.044C266.82 473.206 274.276 467.488 283.019 465.147ZM275.339 502.531C277.361 509.989 284.125 515.169 291.851 515.178C293.353 515.175 294.847 514.977 296.297 514.589C305.401 512.147 310.801 502.788 308.36 493.685C305.919 484.581 296.56 479.18 287.457 481.62C278.353 484.061 272.951 493.419 275.391 502.523L275.339 502.531Z" fill="#0D47A1"/>
<path d="M232.118 694.378C236.831 694.378 240.651 698.198 240.651 702.911C240.651 707.624 236.831 711.444 232.118 711.444C227.405 711.444 223.585 707.624 223.585 702.911C223.585 698.198 227.405 694.378 232.118 694.378Z" fill="#0D47A1"/>
<path d="M356.533 0.000226974C361.246 0.000226974 365.067 3.82073 365.067 8.53356C365.067 13.2464 361.246 17.0669 356.533 17.0669C351.821 17.0669 348 13.2464 348 8.53356C348 3.82073 351.821 0.000226974 356.533 0.000226974Z" fill="#0D47A1"/>
<path d="M446 352C523.32 352 586 289.32 586 212C586 134.68 523.32 72 446 72C368.68 72 306 134.68 306 212C306.089 289.283 368.717 351.911 446 352ZM446 93.5385C511.425 93.5385 564.462 146.575 564.462 212C564.462 277.425 511.425 330.462 446 330.462C380.575 330.462 327.538 277.425 327.538 212C327.617 146.606 380.606 93.6173 446 93.5385Z" fill="#42A5F5"/>
<path d="M459 113V130.778C493.349 130.817 521.183 158.651 521.222 193H539C538.952 148.838 503.162 113.048 459 113Z" fill="#42A5F5"/>
<path d="M295 154C295 198.184 259.184 234 215 234C170.816 234 135 198.184 135 154C135 109.816 170.816 74 215 74C259.184 74 295 109.816 295 154Z" fill="#E8EDFC"/>
<path d="M215 66C166.398 66 127 105.398 127 154C127 202.602 166.398 242 215 242C263.602 242 303 202.602 303 154C302.941 105.422 263.578 66.0586 215 66ZM215 226C175.234 226 143 193.766 143 154C143 114.234 175.234 82 215 82C254.766 82 287 114.234 287 154C286.957 193.746 254.746 225.957 215 226Z" fill="#0D47A1"/>
<path d="M159 154H175C175.027 131.918 192.918 114.027 215 114V98C184.086 98.0352 159.035 123.086 159 154Z" fill="#0D47A1"/>
<path d="M308.976 80.9457C308.976 85.3604 312.555 88.9397 316.97 88.9397C321.384 88.9397 324.964 85.3604 324.964 80.9457C324.964 67.7018 335.702 56.9638 348.946 56.9638C353.36 56.9638 356.94 53.3845 356.94 48.9698C356.94 44.5552 353.36 40.9759 348.946 40.9759C335.702 40.9759 324.964 30.2418 324.964 16.994C324.964 12.5793 321.384 9 316.97 9C312.555 9 308.976 12.5793 308.976 16.994C308.976 30.2418 298.238 40.9759 284.994 40.9759C280.579 40.9759 277 44.5552 277 48.9698C277 53.3845 280.579 56.9638 284.994 56.9638C298.238 56.9638 308.976 67.7018 308.976 80.9457ZM316.97 40.73C319.3 43.8643 322.075 46.6435 325.214 48.9698C322.075 51.3001 319.3 54.0754 316.97 57.2136C314.643 54.0754 311.864 51.3001 308.73 48.9698C311.864 46.6435 314.643 43.8643 316.97 40.73Z" fill="#42A5F5"/>
<path d="M78 303C78 295.821 72.1792 290 65 290C57.8208 290 52 295.821 52 303C52 324.544 34.5376 342 13 342C5.8208 342 0 347.821 0 355C0 362.179 5.8208 368 13 368C34.5376 368 52 385.462 52 407C52 414.179 57.8208 420 65 420C72.1792 420 78 414.179 78 407C78 385.462 95.4624 368 117 368C124.179 368 130 362.179 130 355C130 347.821 124.179 342 117 342C95.4624 342 78 324.544 78 303ZM65 368.406C61.2168 363.303 56.6973 358.79 51.6001 355C56.6973 351.217 61.2168 346.697 65 341.6C68.7896 346.697 73.3027 351.217 78.4062 355C73.3027 358.79 68.7896 363.303 65 368.406V368.406Z" fill="#42A5F5"/>
<path d="M637.25 445.25C637.25 452.25 639.583 457.75 644.25 461.75C648.917 465.583 653.833 467.5 659 467.5C664.333 467.5 669.25 466 673.75 463C678.417 459.833 682.167 458.25 685 458.25C690 458.25 696.083 462.667 703.25 471.5C707.083 476.333 709 480.667 709 484.5C709 490.833 704.417 496.75 695.25 502.25C685.75 508.917 674.083 512.25 660.25 512.25C644.75 512.25 629.833 506.667 615.5 495.5C608.667 490.167 603.083 483.083 598.75 474.25C594.417 465.25 592.25 455.417 592.25 444.75C592.25 433.917 594.417 424.167 598.75 415.5C603.083 406.667 608.667 399.583 615.5 394.25C629.333 383.25 644.083 377.75 659.75 377.75C666.083 377.75 672.25 378.667 678.25 380.5C684.25 382.167 688.667 383.833 691.5 385.5L695.5 388C698.5 390 700.833 391.583 702.5 392.75C706.833 396.083 709 399.917 709 404.25C709 408.417 707.25 413.167 703.75 418.5C697.75 427.667 692 432.25 686.5 432.25C683.333 432.25 678.833 430.417 673 426.75C670 423.917 665.667 422.5 660 422.5C654.5 422.5 649.333 424.5 644.5 428.5C639.667 432.5 637.25 438.083 637.25 445.25Z" fill="#42A5F5"/>
<path d="M810.65 393.25C811.65 383.917 818.234 379.25 830.4 379.25C836.9 379.25 841.734 379.75 844.9 380.75C848.067 381.75 850.234 383.5 851.4 386C852.734 388.5 853.484 390.75 853.65 392.75C853.984 394.583 854.15 397.417 854.15 401.25V488.75C854.15 492.583 853.984 495.5 853.65 497.5C853.484 499.333 852.817 501.5 851.65 504C849.317 508.333 843.567 510.5 834.4 510.5C825.4 510.5 819.317 509.417 816.15 507.25C813.15 504.917 811.4 501.583 810.9 497.25C804.734 506.083 794.4 510.5 779.9 510.5C765.567 510.5 752.234 503.917 739.9 490.75C727.567 477.583 721.4 462.333 721.4 445C721.4 427.5 727.567 412.25 739.9 399.25C752.4 386.083 766.067 379.5 780.9 379.5C786.567 379.5 791.734 380.5 796.4 382.5C801.067 384.5 804.317 386.417 806.15 388.25C807.984 389.917 809.484 391.583 810.65 393.25ZM765.15 445.25C765.15 450.75 767.317 455.75 771.65 460.25C775.984 464.583 781.234 466.75 787.4 466.75C793.567 466.75 798.65 464.5 802.65 460C806.817 455.5 808.9 450.583 808.9 445.25C808.9 439.75 806.9 434.667 802.9 430C799.067 425.333 793.817 423 787.15 423C780.65 423 775.317 425.333 771.15 430C767.15 434.667 765.15 439.75 765.15 445.25Z" fill="#42A5F5"/>
<path d="M963.576 380.75C966.743 381.75 969.326 383.5 971.326 386C973.493 388.333 974.576 392.167 974.576 397.5C974.576 402.833 972.993 408.667 969.826 415C966.66 421.333 962.076 424.5 956.076 424.5C953.076 424.5 950.16 423.833 947.326 422.5C944.66 421.167 941.076 420.5 936.576 420.5C932.076 420.5 927.826 422.083 923.826 425.25C919.993 428.417 918.076 432.25 918.076 436.75V489.25C918.076 493.083 917.91 496 917.576 498C917.41 499.833 916.66 502 915.326 504.5C912.826 508.833 906.326 511 895.826 511C887.826 511 882.076 509.583 878.576 506.75C875.91 504.417 874.41 500.833 874.076 496C874.076 494.333 874.076 491.917 874.076 488.75V401C874.076 397.167 874.16 394.333 874.326 392.5C874.66 390.5 875.41 388.333 876.576 386C878.91 381.5 885.41 379.25 896.076 379.25C906.076 379.25 912.326 381.167 914.826 385C916.66 387.667 917.576 390.417 917.576 393.25C918.41 392.083 919.576 390.667 921.076 389C922.743 387.333 926.16 385.083 931.326 382.25C936.493 379.417 940.993 378 944.826 378C948.826 378 952.16 378.25 954.826 378.75C957.493 379.083 960.41 379.75 963.576 380.75Z" fill="#42A5F5"/>
<path d="M794.5 737.5C788.167 745.833 778.083 750 764.25 750C750.417 750 737.417 743.667 725.25 731C713.25 718.167 707.25 703.25 707.25 686.25C707.25 669.25 713.333 654.333 725.5 641.5C737.667 628.667 751 622.25 765.5 622.25C771.167 622.25 776.333 623.333 781 625.5C785.667 627.5 788.833 629.417 790.5 631.25C792.333 632.917 793.75 634.5 794.75 636C795.25 631.333 796.917 627.833 799.75 625.5C802.75 623 807.5 621.75 814 621.75C820.5 621.75 825.25 622.25 828.25 623.25C831.25 624.25 833.333 626 834.5 628.5C835.833 630.833 836.583 632.917 836.75 634.75C837.083 636.583 837.25 639.417 837.25 643.25V746.75C837.25 765.917 830.583 781.333 817.25 793C803.917 804.833 788.917 810.75 772.25 810.75C759.583 810.75 747.5 807.667 736 801.5C724.5 795.333 718.75 789.75 718.75 784.75C718.75 778.25 721.25 772.5 726.25 767.5C729.417 764 731.833 761.583 733.5 760.25C735.333 758.917 737.417 758.25 739.75 758.25C742.083 758.25 744.5 759.25 747 761.25C755 767.417 763.667 770.5 773 770.5C779.333 770.5 784.5 768 788.5 763C792.5 758 794.5 752 794.5 745V737.5ZM750 686.5C750 691.833 752.083 696.667 756.25 701C760.583 705.333 765.75 707.5 771.75 707.5C777.917 707.5 783 705.333 787 701C791 696.5 793 691.667 793 686.5C793 681.167 791.083 676.25 787.25 671.75C783.417 667.083 778.25 664.75 771.75 664.75C765.25 664.75 760 667 756 671.5C752 676 750 681 750 686.5Z" fill="#42A5F5"/>
<path d="M915.74 753.5C898.907 753.5 884.907 747.167 873.74 734.5C862.74 721.667 857.24 706.083 857.24 687.75V644C857.24 640 857.324 637.083 857.49 635.25C857.824 633.417 858.574 631.25 859.74 628.75C862.074 624.25 868.574 622 879.24 622C890.907 622 897.74 625.167 899.74 631.5C900.74 634.167 901.24 638.417 901.24 644.25V688C901.24 694.833 903.157 700.167 906.99 704C910.99 707.833 916.24 709.75 922.74 709.75C929.407 709.75 934.74 707.75 938.74 703.75C942.907 699.75 944.99 694.5 944.99 688V643.75C944.99 639.917 945.074 637.083 945.24 635.25C945.574 633.25 946.407 631 947.74 628.5C949.907 624.167 956.324 622 966.99 622C977.49 622 983.907 624.25 986.24 628.75C987.407 631.25 988.074 633.5 988.24 635.5C988.574 637.333 988.74 640.167 988.74 644V732.5C988.74 736.167 988.574 739 988.24 741C988.074 742.833 987.324 744.917 985.99 747.25C983.49 751.583 977.074 753.75 966.74 753.75C956.574 753.75 950.324 751.75 947.99 747.75C946.324 744.917 945.49 741.5 945.49 737.5C944.824 738.667 943.324 740.333 940.99 742.5C938.657 744.667 936.407 746.5 934.24 748C928.574 751.667 922.407 753.5 915.74 753.5ZM968.74 603.75C965.574 604.75 961.324 605.25 955.99 605.25C950.657 605.25 946.407 604.75 943.24 603.75C940.074 602.75 937.824 601 936.49 598.5C935.157 595.833 934.324 593.583 933.99 591.75C933.824 589.75 933.74 586.75 933.74 582.75C933.74 578.75 933.824 575.833 933.99 574C934.324 572 935.157 569.833 936.49 567.5C937.824 565 940.074 563.25 943.24 562.25C946.574 561.25 950.907 560.75 956.24 560.75C961.574 560.75 965.824 561.25 968.99 562.25C972.157 563.25 974.407 565.083 975.74 567.75C977.074 570.25 977.824 572.5 977.99 574.5C978.324 576.333 978.49 579.25 978.49 583.25C978.49 587.083 978.324 590 977.99 592C977.824 593.833 977.074 596 975.74 598.5C974.407 601 972.074 602.75 968.74 603.75ZM901.24 603.75C898.074 604.75 893.824 605.25 888.49 605.25C883.157 605.25 878.907 604.75 875.74 603.75C872.574 602.75 870.324 601 868.99 598.5C867.657 595.833 866.824 593.583 866.49 591.75C866.324 589.75 866.24 586.75 866.24 582.75C866.407 578.583 866.574 575.667 866.74 574C867.074 572.167 867.824 570 868.99 567.5C870.324 565 872.574 563.25 875.74 562.25C879.074 561.25 883.407 560.75 888.74 560.75C894.074 560.75 898.324 561.25 901.49 562.25C904.657 563.25 906.907 565.083 908.24 567.75C909.574 570.25 910.324 572.5 910.49 574.5C910.824 576.333 910.99 579.25 910.99 583.25C910.99 587.083 910.824 590 910.49 592C910.324 593.833 909.574 596 908.24 598.5C906.907 601 904.574 602.75 901.24 603.75Z" fill="#42A5F5"/>
<path d="M1094.35 636.25C1095.35 626.917 1101.93 622.25 1114.1 622.25C1120.6 622.25 1125.43 622.75 1128.6 623.75C1131.77 624.75 1133.93 626.5 1135.1 629C1136.43 631.5 1137.18 633.75 1137.35 635.75C1137.68 637.583 1137.85 640.417 1137.85 644.25V731.75C1137.85 735.583 1137.68 738.5 1137.35 740.5C1137.18 742.333 1136.52 744.5 1135.35 747C1133.02 751.333 1127.27 753.5 1118.1 753.5C1109.1 753.5 1103.02 752.417 1099.85 750.25C1096.85 747.917 1095.1 744.583 1094.6 740.25C1088.43 749.083 1078.1 753.5 1063.6 753.5C1049.27 753.5 1035.93 746.917 1023.6 733.75C1011.27 720.583 1005.1 705.333 1005.1 688C1005.1 670.5 1011.27 655.25 1023.6 642.25C1036.1 629.083 1049.77 622.5 1064.6 622.5C1070.27 622.5 1075.43 623.5 1080.1 625.5C1084.77 627.5 1088.02 629.417 1089.85 631.25C1091.68 632.917 1093.18 634.583 1094.35 636.25ZM1048.85 688.25C1048.85 693.75 1051.02 698.75 1055.35 703.25C1059.68 707.583 1064.93 709.75 1071.1 709.75C1077.27 709.75 1082.35 707.5 1086.35 703C1090.52 698.5 1092.6 693.583 1092.6 688.25C1092.6 682.75 1090.6 677.667 1086.6 673C1082.77 668.333 1077.52 666 1070.85 666C1064.35 666 1059.02 668.333 1054.85 673C1050.85 677.667 1048.85 682.75 1048.85 688.25Z" fill="#42A5F5"/>
<path d="M1158.78 742.25C1155.61 740.25 1154.03 737.083 1154.03 732.75C1154.03 728.417 1157.19 721.833 1163.53 713C1165.36 710.167 1168.28 708.75 1172.28 708.75C1176.44 708.75 1182.03 710.833 1189.03 715C1196.03 719 1202.36 721 1208.03 721C1218.19 721 1223.28 719 1223.28 715C1223.28 711.833 1217.69 709.5 1206.53 708C1196.03 706.5 1185.61 702.583 1175.28 696.25C1170.44 693.25 1166.44 688.583 1163.28 682.25C1160.11 675.75 1158.53 668.083 1158.53 659.25C1158.53 632.917 1176.61 619.75 1212.78 619.75C1224.61 619.75 1236.78 622.583 1249.28 628.25C1255.11 630.917 1258.03 634.25 1258.03 638.25C1258.03 642.25 1256.19 647.167 1252.53 653C1248.86 658.833 1245.11 661.75 1241.28 661.75C1239.28 661.75 1235.53 660.5 1230.03 658C1224.69 655.5 1218.86 654.25 1212.53 654.25C1202.69 654.25 1197.78 656.083 1197.78 659.75C1197.78 664.75 1203.44 668 1214.78 669.5C1225.78 670.667 1236.44 673.833 1246.78 679C1251.61 681.333 1255.61 685.417 1258.78 691.25C1262.11 696.917 1263.78 704.083 1263.78 712.75C1263.78 721.417 1262.11 728.833 1258.78 735C1255.61 741 1251.11 745.5 1245.28 748.5C1234.61 753.667 1221.19 756.25 1205.03 756.25C1189.03 756.25 1173.61 751.583 1158.78 742.25Z" fill="#42A5F5"/>
<path d="M1353.09 622.75C1369.76 622.75 1383.59 629.083 1394.59 641.75C1405.76 654.417 1411.34 669.917 1411.34 688.25V732.25C1411.34 736.083 1411.18 739 1410.84 741C1410.68 742.833 1409.93 745 1408.59 747.5C1406.43 751.833 1400.01 754 1389.34 754C1379.18 754 1372.84 751.833 1370.34 747.5C1369.01 745 1368.18 742.75 1367.84 740.75C1367.68 738.75 1367.59 735.75 1367.59 731.75V688C1367.59 681.167 1365.68 675.833 1361.84 672C1358.01 668.167 1353.09 666.25 1347.09 666.25C1341.26 666.25 1336.09 668.083 1331.59 671.75C1327.09 675.25 1324.51 679.25 1323.84 683.75V732.25C1323.84 736.083 1323.68 739 1323.34 741C1323.18 742.833 1322.43 745 1321.09 747.5C1318.93 751.833 1312.51 754 1301.84 754C1291.34 754 1284.93 751.75 1282.59 747.25C1281.43 744.75 1280.68 742.583 1280.34 740.75C1280.18 738.917 1280.09 736 1280.09 732V582.5C1280.09 578.667 1280.18 575.833 1280.34 574C1280.68 572 1281.43 569.833 1282.59 567.5C1284.93 563 1291.43 560.75 1302.09 560.75C1312.59 560.75 1318.93 563 1321.09 567.5C1322.43 570 1323.18 572.25 1323.34 574.25C1323.68 576.083 1323.84 578.917 1323.84 582.75V638C1332.18 627.833 1341.93 622.75 1353.09 622.75Z" fill="#42A5F5"/>
</svg>
