<svg width="586" height="755" viewBox="0 0 586 755" fill="none" xmlns="http://www.w3.org/2000/svg">
<path d="M340.065 449.812C341.202 450.922 342.226 452.031 343.137 453.14C344.161 454.25 345.099 455.444 346.038 456.639C346.806 457.663 347.574 458.687 348.257 459.711C348.59 460.054 348.851 460.46 349.025 460.906C349.707 461.93 350.39 463.039 350.987 464.148C354.006 469.269 356.304 474.783 357.814 480.532C357.814 480.618 357.899 480.618 357.899 480.703C358.401 480.549 358.915 480.435 359.435 480.362L443.318 473.364C446.077 489.716 446.106 506.411 443.403 522.772V522.858L359.435 515.86C358.915 515.787 358.401 515.673 357.899 515.519C357.899 515.604 357.814 515.604 357.814 515.69C355.297 525.169 350.755 533.99 344.502 541.546C343.837 542.409 343.125 543.235 342.369 544.02C342.272 544.202 342.124 544.35 341.942 544.447C341.36 545.142 340.733 545.798 340.065 546.41C339.979 546.58 339.979 546.58 339.894 546.58C340.303 546.915 340.65 547.32 340.918 547.775L389.046 616.98C376.303 627.508 361.879 635.816 346.379 641.556L346.209 641.642L310.283 565.439C310.113 564.927 309.942 564.5 309.771 563.988H309.601C306.651 564.757 303.659 565.356 300.641 565.78C299.19 565.951 297.654 566.122 296.118 566.207C294.753 566.292 293.302 566.378 291.851 566.378C290.23 566.378 288.609 566.292 287.073 566.207C285.707 566.122 284.257 565.951 282.806 565.78C279.872 565.392 276.965 564.822 274.102 564.074C274.017 563.988 274.017 563.988 273.931 563.988C273.761 564.5 273.59 564.927 273.419 565.439L237.494 641.642C229.712 638.827 222.2 635.314 215.051 631.146C207.853 627.027 201.029 622.287 194.657 616.98L242.785 547.775C243.053 547.32 243.4 546.915 243.809 546.58C243.723 546.58 243.723 546.58 243.638 546.495V546.41C242.5 545.3 241.476 544.191 240.566 543.082C239.542 541.972 238.603 540.778 237.665 539.583C236.897 538.559 236.129 537.535 235.446 536.511C235.113 536.168 234.852 535.762 234.678 535.316C233.995 534.292 233.313 533.183 232.715 532.074C229.696 526.953 227.399 521.439 225.889 515.69C225.889 515.604 225.803 515.604 225.803 515.519C225.301 515.673 224.788 515.787 224.267 515.86L140.385 522.858C137.625 506.506 137.596 489.81 140.299 473.45V473.364L224.267 480.362C224.788 480.435 225.301 480.549 225.803 480.703C225.803 480.618 225.889 480.618 225.889 480.532C228.406 471.053 232.947 462.232 239.201 454.676C239.866 453.813 240.578 452.987 241.334 452.202C241.431 452.02 241.579 451.871 241.761 451.775C242.342 451.08 242.969 450.424 243.638 449.812C243.723 449.642 243.723 449.642 243.809 449.642C243.4 449.307 243.053 448.902 242.785 448.447L194.657 379.242C207.4 368.714 221.823 360.406 237.323 354.666L237.494 354.58L273.419 430.783C273.59 431.295 273.761 431.722 273.931 432.234H274.102C277.052 431.464 280.043 430.866 283.062 430.442C284.513 430.271 286.049 430.1 287.585 430.015C288.95 429.93 290.401 429.844 291.851 429.844C293.473 429.844 295.094 429.93 296.63 430.015C297.995 430.1 299.446 430.271 300.897 430.442C303.831 430.829 306.738 431.399 309.601 432.148C309.686 432.234 309.686 432.234 309.771 432.234C309.942 431.722 310.113 431.295 310.283 430.783L346.209 354.58C353.991 357.395 361.502 360.908 368.651 365.076C375.849 369.195 382.673 373.935 389.046 379.242L340.918 448.447C340.65 448.902 340.303 449.307 339.894 449.642C339.979 449.642 339.979 449.642 340.065 449.727V449.812ZM304.651 475.924C292.404 468.868 276.755 473.072 269.694 485.317C262.633 497.562 266.832 513.212 279.074 520.278C291.316 527.343 306.968 523.15 314.038 510.911C321.08 498.654 316.883 483.01 304.651 475.924Z" fill="#E8EDFC"/>
<path d="M242.785 547.775L243.638 546.495C243.723 546.58 243.723 546.58 243.809 546.58C243.4 546.915 243.053 547.32 242.785 547.775ZM242.785 547.775L243.638 546.495C243.723 546.58 243.723 546.58 243.809 546.58C243.4 546.915 243.053 547.32 242.785 547.775ZM242.785 547.775L243.638 546.495C243.723 546.58 243.723 546.58 243.809 546.58C243.4 546.915 243.053 547.32 242.785 547.775ZM273.419 565.439C273.59 564.927 273.761 564.5 273.931 563.988C274.017 563.988 274.017 563.988 274.102 564.074L273.419 565.439ZM273.419 565.439C273.59 564.927 273.761 564.5 273.931 563.988C274.017 563.988 274.017 563.988 274.102 564.074L273.419 565.439ZM242.785 547.775L243.638 546.495C243.723 546.58 243.723 546.58 243.809 546.58C243.4 546.915 243.053 547.32 242.785 547.775ZM242.785 547.775L243.638 546.495C243.723 546.58 243.723 546.58 243.809 546.58C243.4 546.915 243.053 547.32 242.785 547.775ZM273.419 565.439C273.59 564.927 273.761 564.5 273.931 563.988C274.017 563.988 274.017 563.988 274.102 564.074L273.419 565.439ZM309.771 432.234C309.686 432.234 309.686 432.234 309.601 432.148L310.283 430.783C310.113 431.295 309.942 431.722 309.771 432.234ZM340.065 449.727C339.979 449.642 339.979 449.642 339.894 449.642C340.303 449.307 340.65 448.902 340.918 448.447L340.065 449.727ZM340.065 449.727C339.979 449.642 339.979 449.642 339.894 449.642C340.303 449.307 340.65 448.902 340.918 448.447L340.065 449.727ZM309.771 432.234C309.686 432.234 309.686 432.234 309.601 432.148L310.283 430.783C310.113 431.295 309.942 431.722 309.771 432.234ZM273.419 565.439C273.59 564.927 273.761 564.5 273.931 563.988C274.017 563.988 274.017 563.988 274.102 564.074L273.419 565.439ZM242.785 547.775L243.638 546.495C243.723 546.58 243.723 546.58 243.809 546.58C243.4 546.915 243.053 547.32 242.785 547.775ZM242.785 547.775L243.638 546.495C243.723 546.58 243.723 546.58 243.809 546.58C243.4 546.915 243.053 547.32 242.785 547.775ZM273.419 565.439C273.59 564.927 273.761 564.5 273.931 563.988C274.017 563.988 274.017 563.988 274.102 564.074L273.419 565.439ZM309.771 432.234C309.686 432.234 309.686 432.234 309.601 432.148L310.283 430.783C310.113 431.295 309.942 431.722 309.771 432.234ZM340.065 449.727C339.979 449.642 339.979 449.642 339.894 449.642C340.303 449.307 340.65 448.902 340.918 448.447L340.065 449.727ZM340.065 449.727C339.979 449.642 339.979 449.642 339.894 449.642C340.303 449.307 340.65 448.902 340.918 448.447L340.065 449.727ZM309.771 432.234C309.686 432.234 309.686 432.234 309.601 432.148L310.283 430.783C310.113 431.295 309.942 431.722 309.771 432.234ZM273.419 565.439C273.59 564.927 273.761 564.5 273.931 563.988C274.017 563.988 274.017 563.988 274.102 564.074L273.419 565.439ZM242.785 547.775L243.638 546.495C243.723 546.58 243.723 546.58 243.809 546.58C243.4 546.915 243.053 547.32 242.785 547.775ZM242.785 547.775L243.638 546.495C243.723 546.58 243.723 546.58 243.809 546.58C243.4 546.915 243.053 547.32 242.785 547.775ZM273.419 565.439C273.59 564.927 273.761 564.5 273.931 563.988C274.017 563.988 274.017 563.988 274.102 564.074L273.419 565.439ZM309.771 432.234C309.686 432.234 309.686 432.234 309.601 432.148L310.283 430.783C310.113 431.295 309.942 431.722 309.771 432.234ZM340.065 449.727C339.979 449.642 339.979 449.642 339.894 449.642C340.303 449.307 340.65 448.902 340.918 448.447L340.065 449.727ZM340.065 449.727C339.979 449.642 339.979 449.642 339.894 449.642C340.303 449.307 340.65 448.902 340.918 448.447L340.065 449.727ZM309.601 432.148L310.283 430.783C310.113 431.295 309.942 431.722 309.771 432.234C309.686 432.234 309.686 432.234 309.601 432.148ZM273.931 563.988C274.017 563.988 274.017 563.988 274.102 564.074L273.419 565.439C273.59 564.927 273.761 564.5 273.931 563.988ZM243.638 546.495C243.723 546.58 243.723 546.58 243.809 546.58C243.4 546.915 243.053 547.32 242.785 547.775L243.638 546.495ZM506.123 621.844C459.581 702.538 371.644 750.233 278.625 745.236C410.081 738.556 513.304 630.141 513.532 498.516C513.759 366.891 410.91 258.12 279.478 250.986C369.974 246.477 455.698 291.787 502.947 369.1C550.196 446.414 551.415 543.368 506.123 621.844ZM339.894 449.642C340.303 449.307 340.65 448.902 340.918 448.447L340.065 449.727C339.979 449.642 339.979 449.642 339.894 449.642ZM309.601 432.148L310.283 430.783C310.113 431.295 309.942 431.722 309.771 432.234C309.686 432.234 309.686 432.234 309.601 432.148ZM273.931 563.988C274.017 563.988 274.017 563.988 274.102 564.074L273.419 565.439C273.59 564.927 273.761 564.5 273.931 563.988ZM243.638 546.495C243.723 546.58 243.723 546.58 243.809 546.58C243.4 546.915 243.053 547.32 242.785 547.775L243.638 546.495ZM242.785 547.775L243.638 546.495C243.723 546.58 243.723 546.58 243.809 546.58C243.4 546.915 243.053 547.32 242.785 547.775ZM273.419 565.439C273.59 564.927 273.761 564.5 273.931 563.988C274.017 563.988 274.017 563.988 274.102 564.074L273.419 565.439ZM309.771 432.234C309.686 432.234 309.686 432.234 309.601 432.148L310.283 430.783C310.113 431.295 309.942 431.722 309.771 432.234ZM340.065 449.727C339.979 449.642 339.979 449.642 339.894 449.642C340.303 449.307 340.65 448.902 340.918 448.447L340.065 449.727ZM340.065 449.727C339.979 449.642 339.979 449.642 339.894 449.642C340.303 449.307 340.65 448.902 340.918 448.447L340.065 449.727ZM309.771 432.234C309.686 432.234 309.686 432.234 309.601 432.148L310.283 430.783C310.113 431.295 309.942 431.722 309.771 432.234ZM273.419 565.439C273.59 564.927 273.761 564.5 273.931 563.988C274.017 563.988 274.017 563.988 274.102 564.074L273.419 565.439ZM242.785 547.775L243.638 546.495C243.723 546.58 243.723 546.58 243.809 546.58C243.4 546.915 243.053 547.32 242.785 547.775ZM242.785 547.775L243.638 546.495C243.723 546.58 243.723 546.58 243.809 546.58C243.4 546.915 243.053 547.32 242.785 547.775ZM273.419 565.439C273.59 564.927 273.761 564.5 273.931 563.988C274.017 563.988 274.017 563.988 274.102 564.074L273.419 565.439ZM309.771 432.234C309.686 432.234 309.686 432.234 309.601 432.148L310.283 430.783C310.113 431.295 309.942 431.722 309.771 432.234ZM340.065 449.727C339.979 449.642 339.979 449.642 339.894 449.642C340.303 449.307 340.65 448.902 340.918 448.447L340.065 449.727ZM340.065 449.727C339.979 449.642 339.979 449.642 339.894 449.642C340.303 449.307 340.65 448.902 340.918 448.447L340.065 449.727ZM309.771 432.234C309.686 432.234 309.686 432.234 309.601 432.148L310.283 430.783C310.113 431.295 309.942 431.722 309.771 432.234ZM273.419 565.439C273.59 564.927 273.761 564.5 273.931 563.988C274.017 563.988 274.017 563.988 274.102 564.074L273.419 565.439ZM242.785 547.775L243.638 546.495C243.723 546.58 243.723 546.58 243.809 546.58C243.4 546.915 243.053 547.32 242.785 547.775ZM242.785 547.775L243.638 546.495C243.723 546.58 243.723 546.58 243.809 546.58C243.4 546.915 243.053 547.32 242.785 547.775ZM273.419 565.439C273.59 564.927 273.761 564.5 273.931 563.988C274.017 563.988 274.017 563.988 274.102 564.074L273.419 565.439ZM340.065 449.727C339.979 449.642 339.979 449.642 339.894 449.642C340.303 449.307 340.65 448.902 340.918 448.447L340.065 449.727ZM340.065 449.727C339.979 449.642 339.979 449.642 339.894 449.642C340.303 449.307 340.65 448.902 340.918 448.447L340.065 449.727ZM273.419 565.439C273.59 564.927 273.761 564.5 273.931 563.988C274.017 563.988 274.017 563.988 274.102 564.074L273.419 565.439ZM242.785 547.775L243.638 546.495C243.723 546.58 243.723 546.58 243.809 546.58C243.4 546.915 243.053 547.32 242.785 547.775ZM242.785 547.775L243.638 546.495C243.723 546.58 243.723 546.58 243.809 546.58C243.4 546.915 243.053 547.32 242.785 547.775ZM273.419 565.439C273.59 564.927 273.761 564.5 273.931 563.988C274.017 563.988 274.017 563.988 274.102 564.074L273.419 565.439ZM273.419 565.439C273.59 564.927 273.761 564.5 273.931 563.988C274.017 563.988 274.017 563.988 274.102 564.074L273.419 565.439ZM242.785 547.775L243.638 546.495C243.723 546.58 243.723 546.58 243.809 546.58C243.4 546.915 243.053 547.32 242.785 547.775Z" fill="#CAD9FC"/>
<path d="M217.185 547.775L218.038 546.495C218.123 546.58 218.123 546.58 218.209 546.58C217.8 546.915 217.453 547.32 217.185 547.775ZM217.185 547.775L218.038 546.495C218.123 546.58 218.123 546.58 218.209 546.58C217.8 546.915 217.453 547.32 217.185 547.775ZM217.185 547.775L218.038 546.495C218.123 546.58 218.123 546.58 218.209 546.58C217.8 546.915 217.453 547.32 217.185 547.775ZM247.819 565.439C247.99 564.927 248.161 564.5 248.331 563.988C248.417 563.988 248.417 563.988 248.502 564.074L247.819 565.439ZM247.819 565.439C247.99 564.927 248.161 564.5 248.331 563.988C248.417 563.988 248.417 563.988 248.502 564.074L247.819 565.439ZM217.185 547.775L218.038 546.495C218.123 546.58 218.123 546.58 218.209 546.58C217.8 546.915 217.453 547.32 217.185 547.775ZM217.185 547.775L218.038 546.495C218.123 546.58 218.123 546.58 218.209 546.58C217.8 546.915 217.453 547.32 217.185 547.775ZM247.819 565.439C247.99 564.927 248.161 564.5 248.331 563.988C248.417 563.988 248.417 563.988 248.502 564.074L247.819 565.439ZM284.171 432.234C284.086 432.234 284.086 432.234 284.001 432.148L284.683 430.783C284.513 431.295 284.342 431.722 284.171 432.234ZM314.465 449.727C314.379 449.642 314.379 449.642 314.294 449.642C314.703 449.307 315.05 448.902 315.318 448.447L314.465 449.727ZM314.465 449.727C314.379 449.642 314.379 449.642 314.294 449.642C314.703 449.307 315.05 448.902 315.318 448.447L314.465 449.727ZM284.171 432.234C284.086 432.234 284.086 432.234 284.001 432.148L284.683 430.783C284.513 431.295 284.342 431.722 284.171 432.234ZM247.819 565.439C247.99 564.927 248.161 564.5 248.331 563.988C248.417 563.988 248.417 563.988 248.502 564.074L247.819 565.439ZM217.185 547.775L218.038 546.495C218.123 546.58 218.123 546.58 218.209 546.58C217.8 546.915 217.453 547.32 217.185 547.775ZM217.185 547.775L218.038 546.495C218.123 546.58 218.123 546.58 218.209 546.58C217.8 546.915 217.453 547.32 217.185 547.775ZM247.819 565.439C247.99 564.927 248.161 564.5 248.331 563.988C248.417 563.988 248.417 563.988 248.502 564.074L247.819 565.439ZM284.171 432.234C284.086 432.234 284.086 432.234 284.001 432.148L284.683 430.783C284.513 431.295 284.342 431.722 284.171 432.234ZM314.465 449.727C314.379 449.642 314.379 449.642 314.294 449.642C314.703 449.307 315.05 448.902 315.318 448.447L314.465 449.727ZM314.465 449.727C314.379 449.642 314.379 449.642 314.294 449.642C314.703 449.307 315.05 448.902 315.318 448.447L314.465 449.727ZM284.171 432.234C284.086 432.234 284.086 432.234 284.001 432.148L284.683 430.783C284.513 431.295 284.342 431.722 284.171 432.234ZM247.819 565.439C247.99 564.927 248.161 564.5 248.331 563.988C248.417 563.988 248.417 563.988 248.502 564.074L247.819 565.439ZM217.185 547.775L218.038 546.495C218.123 546.58 218.123 546.58 218.209 546.58C217.8 546.915 217.453 547.32 217.185 547.775ZM217.185 547.775L218.038 546.495C218.123 546.58 218.123 546.58 218.209 546.58C217.8 546.915 217.453 547.32 217.185 547.775ZM247.819 565.439C247.99 564.927 248.161 564.5 248.331 563.988C248.417 563.988 248.417 563.988 248.502 564.074L247.819 565.439ZM284.171 432.234C284.086 432.234 284.086 432.234 284.001 432.148L284.683 430.783C284.513 431.295 284.342 431.722 284.171 432.234ZM314.465 449.727C314.379 449.642 314.379 449.642 314.294 449.642C314.703 449.307 315.05 448.902 315.318 448.447L314.465 449.727ZM314.465 449.727C314.379 449.642 314.379 449.642 314.294 449.642C314.703 449.307 315.05 448.902 315.318 448.447L314.465 449.727ZM284.001 432.148L284.683 430.783C284.513 431.295 284.342 431.722 284.171 432.234C284.086 432.234 284.086 432.234 284.001 432.148ZM248.331 563.988C248.417 563.988 248.417 563.988 248.502 564.074L247.819 565.439C247.99 564.927 248.161 564.5 248.331 563.988ZM218.038 546.495C218.123 546.58 218.123 546.58 218.209 546.58C217.8 546.915 217.453 547.32 217.185 547.775L218.038 546.495ZM314.465 449.727C314.379 449.642 314.379 449.642 314.294 449.642C314.703 449.307 315.05 448.902 315.318 448.447L314.465 449.727ZM284.001 432.148L284.683 430.783C284.513 431.295 284.342 431.722 284.171 432.234C284.086 432.234 284.086 432.234 284.001 432.148ZM248.331 563.988C248.417 563.988 248.417 563.988 248.502 564.074L247.819 565.439C247.99 564.927 248.161 564.5 248.331 563.988ZM218.038 546.495C218.123 546.58 218.123 546.58 218.209 546.58C217.8 546.915 217.453 547.32 217.185 547.775L218.038 546.495ZM217.185 547.775L218.038 546.495C218.123 546.58 218.123 546.58 218.209 546.58C217.8 546.915 217.453 547.32 217.185 547.775ZM247.819 565.439C247.99 564.927 248.161 564.5 248.331 563.988C248.417 563.988 248.417 563.988 248.502 564.074L247.819 565.439ZM284.171 432.234C284.086 432.234 284.086 432.234 284.001 432.148L284.683 430.783C284.513 431.295 284.342 431.722 284.171 432.234ZM314.465 449.727C314.379 449.642 314.379 449.642 314.294 449.642C314.703 449.307 315.05 448.902 315.318 448.447L314.465 449.727ZM314.465 449.727C314.379 449.642 314.379 449.642 314.294 449.642C314.703 449.307 315.05 448.902 315.318 448.447L314.465 449.727ZM284.171 432.234C284.086 432.234 284.086 432.234 284.001 432.148L284.683 430.783C284.513 431.295 284.342 431.722 284.171 432.234ZM247.819 565.439C247.99 564.927 248.161 564.5 248.331 563.988C248.417 563.988 248.417 563.988 248.502 564.074L247.819 565.439ZM217.185 547.775L218.038 546.495C218.123 546.58 218.123 546.58 218.209 546.58C217.8 546.915 217.453 547.32 217.185 547.775ZM217.185 547.775L218.038 546.495C218.123 546.58 218.123 546.58 218.209 546.58C217.8 546.915 217.453 547.32 217.185 547.775ZM247.819 565.439C247.99 564.927 248.161 564.5 248.331 563.988C248.417 563.988 248.417 563.988 248.502 564.074L247.819 565.439ZM284.171 432.234C284.086 432.234 284.086 432.234 284.001 432.148L284.683 430.783C284.513 431.295 284.342 431.722 284.171 432.234ZM314.465 449.727C314.379 449.642 314.379 449.642 314.294 449.642C314.703 449.307 315.05 448.902 315.318 448.447L314.465 449.727ZM314.465 449.727C314.379 449.642 314.379 449.642 314.294 449.642C314.703 449.307 315.05 448.902 315.318 448.447L314.465 449.727ZM284.171 432.234C284.086 432.234 284.086 432.234 284.001 432.148L284.683 430.783C284.513 431.295 284.342 431.722 284.171 432.234ZM247.819 565.439C247.99 564.927 248.161 564.5 248.331 563.988C248.417 563.988 248.417 563.988 248.502 564.074L247.819 565.439ZM217.185 547.775L218.038 546.495C218.123 546.58 218.123 546.58 218.209 546.58C217.8 546.915 217.453 547.32 217.185 547.775ZM217.185 547.775L218.038 546.495C218.123 546.58 218.123 546.58 218.209 546.58C217.8 546.915 217.453 547.32 217.185 547.775ZM247.819 565.439C247.99 564.927 248.161 564.5 248.331 563.988C248.417 563.988 248.417 563.988 248.502 564.074L247.819 565.439ZM314.465 449.727C314.379 449.642 314.379 449.642 314.294 449.642C314.703 449.307 315.05 448.902 315.318 448.447L314.465 449.727ZM314.465 449.727C314.379 449.642 314.379 449.642 314.294 449.642C314.703 449.307 315.05 448.902 315.318 448.447L314.465 449.727ZM247.819 565.439C247.99 564.927 248.161 564.5 248.331 563.988C248.417 563.988 248.417 563.988 248.502 564.074L247.819 565.439ZM217.185 547.775L218.038 546.495C218.123 546.58 218.123 546.58 218.209 546.58C217.8 546.915 217.453 547.32 217.185 547.775ZM217.185 547.775L218.038 546.495C218.123 546.58 218.123 546.58 218.209 546.58C217.8 546.915 217.453 547.32 217.185 547.775ZM247.819 565.439C247.99 564.927 248.161 564.5 248.331 563.988C248.417 563.988 248.417 563.988 248.502 564.074L247.819 565.439ZM247.819 565.439C247.99 564.927 248.161 564.5 248.331 563.988C248.417 563.988 248.417 563.988 248.502 564.074L247.819 565.439ZM217.185 547.775L218.038 546.495C218.123 546.58 218.123 546.58 218.209 546.58C217.8 546.915 217.453 547.32 217.185 547.775Z" fill="#CAD9FC"/>
<path d="M480.523 621.844C438.568 694.615 362.521 741.092 278.625 745.236C147.193 738.102 44.3439 629.331 44.5712 497.706C44.7984 366.081 148.022 257.666 279.478 250.986C365.39 255.624 442.73 304.543 483.733 380.181C524.737 455.818 523.522 547.322 480.523 621.844ZM443.318 473.364C437.383 436.396 418.067 402.898 389.046 379.242C382.673 373.935 375.849 369.195 368.651 365.076C361.503 360.908 353.991 357.395 346.209 354.58C324.822 346.407 301.865 343.169 279.051 345.108C264.833 346.365 250.852 349.551 237.494 354.58L237.323 354.666C221.823 360.406 207.4 368.714 194.657 379.242C165.61 402.89 146.265 436.387 140.299 473.364V473.45C137.597 489.81 137.625 506.506 140.385 522.858C146.32 559.826 165.635 593.324 194.657 616.98C201.029 622.287 207.854 627.027 215.051 631.146C222.2 635.314 229.712 638.827 237.494 641.642C272.503 654.988 311.199 654.988 346.209 641.642L346.379 641.556C361.88 635.816 376.303 627.508 389.046 616.98C418.093 593.332 437.437 559.835 443.403 522.858V522.772C446.106 506.411 446.077 489.716 443.318 473.364Z" fill="#E8EDFC"/>
<path d="M360.118 498.111C360.118 460.408 329.554 429.844 291.851 429.844C287.557 429.849 283.272 430.249 279.051 431.039C246.826 437.148 223.5 465.312 223.5 498.111C223.5 530.91 246.826 559.074 279.051 565.183C283.272 565.973 287.557 566.373 291.851 566.378C329.554 566.378 360.118 535.814 360.118 498.111Z" fill="#CAD9FC"/>
<path d="M279.051 431.039C309.685 431.039 334.518 461.068 334.518 498.111C334.518 535.154 309.685 565.183 279.051 565.183C248.418 565.183 223.585 535.154 223.585 498.111C223.585 461.068 248.418 431.039 279.051 431.039Z" fill="#E8EDFC"/>
<path d="M304.651 475.924C298.208 472.147 290.41 471.458 283.403 474.047C277.611 476.015 272.73 480.017 269.665 485.311C262.622 497.568 266.82 513.212 279.051 520.298C280.399 521.08 281.83 521.71 283.318 522.175C295.738 526.431 309.364 520.601 314.863 508.68C320.362 496.758 315.951 482.609 304.651 475.924Z" fill="#7FACFA"/>
<path d="M287.585 475.924C286.266 475.143 284.864 474.513 283.403 474.047C277.611 476.015 272.73 480.017 269.665 485.311C262.622 497.568 266.82 513.212 279.051 520.298C280.399 521.08 281.83 521.71 283.318 522.175C289.083 520.198 293.934 516.195 296.971 510.911C304.014 498.654 299.817 483.01 287.585 475.924Z" fill="#A4C2F7"/>
<path d="M77.5794 374.378C119.535 301.607 195.581 255.13 279.478 250.986C287.593 250.568 295.751 250.696 303.909 251.08C173.095 258.622 70.8351 366.827 70.688 497.858C70.5409 628.889 172.558 737.323 303.354 745.16C295.137 745.544 286.885 745.663 278.608 745.228C192.702 740.582 115.37 691.662 74.3706 616.028C33.3714 540.394 34.5863 448.896 77.5794 374.378Z" fill="white"/>
<path d="M70.1468 370.111C51.0636 403.433 39.6724 440.601 36.8071 478.894C35.8913 490.819 35.763 502.792 36.4231 514.734C36.901 520.707 37.7628 526.621 38.4199 532.569C39.0232 538.523 40.0527 544.426 41.5004 550.233C46.2506 573.74 54.4093 596.428 65.718 617.578C76.8005 638.825 90.8825 658.368 107.531 675.604C124.273 692.761 143.21 707.627 163.851 719.816L172.385 705.036C153.137 693.637 135.473 679.757 119.845 663.752C104.296 647.674 91.1418 629.442 80.7879 609.616C70.2303 589.877 62.623 568.697 58.2087 546.751C56.8383 541.333 55.877 535.819 55.333 530.256C54.7271 524.701 53.8994 519.163 53.4471 513.608C52.8478 502.472 52.9761 491.31 53.8311 480.191C56.4959 444.447 67.1204 409.752 84.9266 378.644L70.1468 370.111Z" fill="white"/>
<path d="M47.8918 430.024L49.4107 429.366C49.9611 429.176 50.5357 429.064 51.1174 429.034C51.6515 428.931 52.1979 428.908 52.7387 428.965C53.314 429.028 53.8842 429.131 54.4454 429.273C56.5994 429.941 58.4372 431.369 59.6166 433.292C60.1441 434.254 60.483 435.308 60.615 436.398C60.9955 439.744 59.3526 442.996 56.4337 444.675C55.4787 445.22 54.4364 445.596 53.3532 445.785C52.2688 446.002 51.1521 446.002 50.0678 445.785C47.8352 445.27 45.8841 443.92 44.615 442.013C43.5423 439.99 43.2799 437.634 43.8811 435.425C44.5047 433.191 45.9334 431.267 47.8918 430.024Z" fill="#0D47A1"/>
<path d="M358.113 745.39C292.542 763.149 222.592 753.94 163.851 719.816C143.21 707.627 124.273 692.761 107.531 675.604C90.8825 658.368 76.8005 638.825 65.718 617.578C54.4124 596.439 46.2538 573.763 41.5004 550.267C40.0498 544.46 39.0175 538.557 38.4114 532.603C37.7543 526.629 36.8924 520.724 36.4146 514.768C35.7545 502.826 35.8828 490.853 36.7986 478.928L37.4727 470.096C37.6741 467.792 38.8225 465.675 40.6439 464.25C42.4654 462.825 44.7965 462.219 47.0812 462.578C51.6054 463.311 54.8074 467.397 54.437 471.965L53.8311 480.191C52.9735 491.329 52.8452 502.512 53.4471 513.667C53.8994 519.231 54.7271 524.761 55.333 530.316C55.8799 535.858 56.8412 541.352 58.2087 546.751C62.6262 568.685 70.2334 589.853 80.7879 609.582C91.1418 629.408 104.296 647.64 119.845 663.717C135.472 679.728 153.137 693.614 172.385 705.019C256.084 753.349 360.656 746.495 437.33 687.653C514.004 628.81 547.677 529.571 522.644 436.219C497.616 342.882 418.832 273.81 323.023 261.208C227.215 248.606 133.248 294.955 84.9351 378.644L77.4258 393.322L73.6882 400.669L70.7015 408.349C68.8893 412.617 64.0389 414.704 59.6935 413.085C57.5531 412.268 55.8345 410.62 54.9294 408.516C54.0243 406.411 54.0098 404.03 54.8892 401.915L58.1148 393.697L62.0999 385.821L70.1468 370.111C103.954 311.189 159.926 268.239 225.59 250.832C247.335 244.988 269.753 242.018 292.27 242C383.666 242.181 468.037 291.059 513.66 370.254C559.283 449.449 559.24 546.956 513.547 626.111C479.742 685.031 423.773 727.981 358.113 745.39Z" fill="#0D47A1"/>
<path d="M203.028 701.349C195.468 698.043 188.088 694.34 180.918 690.256C139.184 666.37 106.444 629.445 87.7256 585.151C85.8852 580.81 87.912 575.8 92.2525 573.96C96.593 572.119 101.604 574.146 103.444 578.486C120.704 619.347 150.903 653.41 189.4 675.442C196.041 679.215 202.877 682.634 209.88 685.682C212.676 686.902 214.609 689.52 214.95 692.551C215.292 695.582 213.991 698.564 211.537 700.376C209.083 702.187 205.849 702.552 203.054 701.332L203.028 701.349Z" fill="#0D47A1"/>
<path d="M190.16 624.148C190.04 624.072 189.904 624.063 189.784 623.986C189.586 623.801 189.398 623.604 189.221 623.397C144.949 587.02 123.12 530.007 131.775 473.364C131.775 473.262 131.834 473.177 131.834 473.083C140.357 415.654 179.099 367.242 233.262 346.337C287.426 325.432 348.647 335.262 393.543 372.074C393.663 372.15 393.799 372.159 393.919 372.236C394.117 372.421 394.305 372.618 394.482 372.825C438.753 409.202 460.583 466.215 451.928 522.858C451.928 522.96 451.868 523.045 451.868 523.139C445.93 562.554 425.455 598.319 394.473 623.397C394.26 623.577 394.14 623.824 393.91 623.986C393.816 624.046 393.705 624.054 393.611 624.114C348.708 660.266 288.006 669.901 234.115 649.433C234.029 649.39 233.936 649.433 233.842 649.364L233.731 649.279C217.877 643.45 203.137 634.95 190.151 624.148H190.16ZM258.111 537.672C258.352 537.803 258.585 537.949 258.81 538.107L266.098 542.373L281.014 550.992C283.326 552.368 284.842 554.765 285.093 557.443C290.618 558.026 296.197 557.848 301.673 556.914C302.937 552.762 305.735 549.246 309.498 547.084L325.387 537.851C329.174 535.675 333.652 535.033 337.897 536.059C340.019 533.532 341.928 530.835 343.606 527.995C345.223 525.139 346.593 522.15 347.702 519.06C344.701 515.892 343.036 511.691 343.051 507.327V488.895C343.043 484.552 344.705 480.372 347.693 477.221C345.748 472.024 343.095 467.119 339.809 462.646C337.372 463.762 334.549 463.644 332.214 462.331L325.985 458.721C325.857 458.653 325.72 458.619 325.592 458.55C325.351 458.419 325.117 458.273 324.892 458.115L317.605 453.849L302.689 445.23C300.377 443.854 298.861 441.457 298.61 438.779C293.062 438.193 287.459 438.377 281.961 439.325C280.719 443.463 277.953 446.976 274.221 449.155L258.281 458.363C254.51 460.512 250.06 461.144 245.84 460.129C243.7 462.662 241.779 465.371 240.097 468.227C238.479 471.083 237.109 474.072 236.001 477.162C239.001 480.33 240.667 484.531 240.651 488.895V507.327C240.66 511.67 238.998 515.85 236.009 519.001C237.951 524.192 240.598 529.09 243.877 533.558C246.308 532.379 249.17 532.504 251.489 533.891L257.812 537.552C257.906 537.603 258.017 537.612 258.111 537.672ZM377.407 615.188L333.938 552.588L317.997 561.795L350.475 630.668C359.982 626.49 369.011 621.3 377.407 615.188ZM435.868 482.546L360.118 488.895V507.361L435.954 513.684C437.043 503.332 437.015 492.892 435.868 482.546ZM206.97 382.006L249.748 443.609L265.688 434.41L233.722 366.595L206.97 382.006ZM147.834 513.676L223.585 507.327V488.861L147.749 482.538C146.659 492.89 146.688 503.33 147.834 513.676ZM193.112 604.24L232.843 547.024C227.346 540.378 222.999 532.859 219.984 524.778L150.693 530.563C157.145 558.812 171.922 584.477 193.112 604.24ZM166.215 425.578C158.993 438.085 153.686 451.604 150.471 465.684L219.975 471.478C221.42 467.417 223.213 463.489 225.334 459.737C227.533 456.019 230.042 452.494 232.835 449.198L193.061 391.931C182.484 401.745 173.436 413.086 166.215 425.578ZM249.313 359.649L278.975 422.591C283.311 421.798 287.707 421.375 292.116 421.328C296.354 421.369 300.581 421.763 304.754 422.506L334.433 359.547C306.69 351.054 277.035 351.09 249.313 359.649ZM364.385 372.449C359.89 369.868 355.261 367.526 350.518 365.435L318.091 434.393L326.275 439.146L333.955 443.566L377.475 380.974C373.266 377.909 368.897 375.072 364.385 372.475V372.449ZM390.591 391.956L350.851 449.13C356.354 455.773 360.704 463.293 363.719 471.376L433.01 465.59C426.545 437.366 411.769 411.727 390.591 391.982V391.956ZM417.488 570.644C424.709 558.137 430.016 544.618 433.232 530.538L363.728 524.744C362.298 528.812 360.519 532.749 358.411 536.511C356.206 540.241 353.688 543.778 350.885 547.084L390.659 604.257C401.226 594.451 410.268 583.122 417.488 570.644ZM291.604 643.178C306.121 643.152 320.554 640.961 334.424 636.675L304.711 573.665C296.188 575.133 287.48 575.158 278.949 573.742L249.244 636.752C262.965 640.991 277.243 643.157 291.604 643.178ZM233.202 630.719L265.628 561.804L257.445 557.051L249.765 552.63L206.245 615.222C214.602 621.392 223.635 626.591 233.168 630.719H233.202Z" fill="#0D47A1"/>
<path d="M283.019 465.147C298.75 460.935 315.265 468.421 322.464 483.028C329.664 497.634 325.543 515.292 312.621 525.203C299.7 535.113 281.577 534.516 269.336 523.776C257.095 513.036 254.146 495.145 262.292 481.044C266.82 473.206 274.276 467.488 283.019 465.147ZM275.339 502.531C277.361 509.989 284.125 515.169 291.851 515.178C293.353 515.175 294.847 514.977 296.297 514.589C305.401 512.147 310.801 502.788 308.36 493.685C305.919 484.581 296.56 479.18 287.457 481.62C278.353 484.061 272.951 493.419 275.391 502.523L275.339 502.531Z" fill="#0D47A1"/>
<path d="M232.118 694.378C236.831 694.378 240.651 698.198 240.651 702.911C240.651 707.624 236.831 711.444 232.118 711.444C227.405 711.444 223.585 707.624 223.585 702.911C223.585 698.198 227.405 694.378 232.118 694.378Z" fill="#0D47A1"/>
<path d="M356.533 -1.90735e-06C361.246 -1.90735e-06 365.067 3.8205 365.067 8.53333C365.067 13.2462 361.246 17.0667 356.533 17.0667C351.821 17.0667 348 13.2462 348 8.53333C348 3.8205 351.821 -1.90735e-06 356.533 -1.90735e-06Z" fill="#0D47A1"/>
<path d="M446 352C523.32 352 586 289.32 586 212C586 134.68 523.32 72 446 72C368.68 72 306 134.68 306 212C306.089 289.283 368.717 351.911 446 352ZM446 93.5385C511.425 93.5385 564.462 146.575 564.462 212C564.462 277.425 511.425 330.462 446 330.462C380.575 330.462 327.538 277.425 327.538 212C327.617 146.606 380.606 93.6173 446 93.5385Z" fill="#42A5F5"/>
<path d="M459 113V130.778C493.349 130.817 521.183 158.651 521.222 193H539C538.952 148.838 503.162 113.048 459 113Z" fill="#42A5F5"/>
<path d="M295 154C295 198.184 259.184 234 215 234C170.816 234 135 198.184 135 154C135 109.816 170.816 74 215 74C259.184 74 295 109.816 295 154Z" fill="#E8EDFC"/>
<path d="M215 66C166.398 66 127 105.398 127 154C127 202.602 166.398 242 215 242C263.602 242 303 202.602 303 154C302.941 105.422 263.578 66.0586 215 66ZM215 226C175.234 226 143 193.766 143 154C143 114.234 175.234 82 215 82C254.766 82 287 114.234 287 154C286.957 193.746 254.746 225.957 215 226Z" fill="#0D47A1"/>
<path d="M159 154H175C175.027 131.918 192.918 114.027 215 114V98C184.086 98.0352 159.035 123.086 159 154Z" fill="#0D47A1"/>
<path d="M308.976 80.9457C308.976 85.3604 312.555 88.9397 316.97 88.9397C321.384 88.9397 324.964 85.3604 324.964 80.9457C324.964 67.7018 335.702 56.9638 348.946 56.9638C353.36 56.9638 356.94 53.3845 356.94 48.9699C356.94 44.5552 353.36 40.9759 348.946 40.9759C335.702 40.9759 324.964 30.2418 324.964 16.994C324.964 12.5793 321.384 9.00002 316.97 9.00002C312.555 9.00002 308.976 12.5793 308.976 16.994C308.976 30.2418 298.238 40.9759 284.994 40.9759C280.579 40.9759 277 44.5552 277 48.9699C277 53.3845 280.579 56.9638 284.994 56.9638C298.238 56.9638 308.976 67.7018 308.976 80.9457ZM316.97 40.73C319.3 43.8643 322.075 46.6435 325.214 48.9699C322.075 51.3001 319.3 54.0754 316.97 57.2136C314.643 54.0754 311.864 51.3001 308.73 48.9699C311.864 46.6435 314.643 43.8643 316.97 40.73Z" fill="#42A5F5"/>
<path d="M78 303C78 295.821 72.1792 290 65 290C57.8208 290 52 295.821 52 303C52 324.544 34.5376 342 13 342C5.8208 342 0 347.821 0 355C0 362.179 5.8208 368 13 368C34.5376 368 52 385.462 52 407C52 414.179 57.8208 420 65 420C72.1792 420 78 414.179 78 407C78 385.462 95.4624 368 117 368C124.179 368 130 362.179 130 355C130 347.821 124.179 342 117 342C95.4624 342 78 324.544 78 303ZM65 368.406C61.2168 363.303 56.6973 358.79 51.6001 355C56.6973 351.217 61.2168 346.697 65 341.6C68.7896 346.697 73.3027 351.217 78.4062 355C73.3027 358.79 68.7896 363.303 65 368.406Z" fill="#42A5F5"/>
</svg>
